<svg width="25" height="25" viewBox="0 0 25 25" fill="none" xmlns="http://www.w3.org/2000/svg">
<path d="M4.23291 8.35858L3.5258 7.65147L2.8187 8.35858L3.5258 9.06569L4.23291 8.35858ZM19.2329 10.3586C19.2329 10.9109 19.6806 11.3586 20.2329 11.3586C20.7852 11.3586 21.2329 10.9109 21.2329 10.3586H19.2329ZM7.5258 3.65147L3.5258 7.65147L4.94002 9.06569L8.94002 5.06569L7.5258 3.65147ZM3.5258 9.06569L7.5258 13.0657L8.94002 11.6515L4.94002 7.65147L3.5258 9.06569ZM4.23291 9.35858H18.2329V7.35858H4.23291V9.35858ZM18.2329 9.35858C18.7852 9.35858 19.2329 9.8063 19.2329 10.3586H21.2329C21.2329 8.70173 19.8898 7.35858 18.2329 7.35858V9.35858Z" fill="#000000"/>
<path d="M20.2329 16.3586L20.94 15.6515L21.6471 16.3586L20.94 17.0657L20.2329 16.3586ZM5.23291 16.3586L5.23291 17.3586L5.23291 17.3586L5.23291 16.3586ZM2.23291 14.3586C2.23291 13.8063 2.68063 13.3586 3.23291 13.3586C3.78519 13.3586 4.23291 13.8063 4.23291 14.3586L2.23291 14.3586ZM16.94 11.6515L20.94 15.6515L19.5258 17.0657L15.5258 13.0657L16.94 11.6515ZM20.94 17.0657L16.94 21.0657L15.5258 19.6515L19.5258 15.6515L20.94 17.0657ZM20.2329 17.3586L5.23291 17.3586L5.23291 15.3586L20.2329 15.3586L20.2329 17.3586ZM5.23291 17.3586C3.57606 17.3586 2.23291 16.0154 2.23291 14.3586L4.23291 14.3586C4.23291 14.9109 4.68063 15.3586 5.23291 15.3586L5.23291 17.3586Z" fill="#000000"/>
</svg>
