<svg width="25" height="25" viewBox="0 0 25 25" fill="none" xmlns="http://www.w3.org/2000/svg">
<mask id="path-1-outside-1_15_298" maskUnits="userSpaceOnUse" x="3.35303" y="4.9295" width="17" height="17" fill="black">
<rect fill="white" x="3.35303" y="4.9295" width="17" height="17"/>
<path d="M13.9388 8.34372L6.74474 15.5378C6.55009 15.7324 6.45277 15.8298 6.38579 15.9481C6.31882 16.0663 6.28544 16.1999 6.21867 16.4669L5.55514 19.1211C5.46488 19.4821 5.41975 19.6626 5.51984 19.7627C5.61993 19.8628 5.80045 19.8176 6.16147 19.7274L6.16148 19.7274L8.8156 19.0639C9.08266 18.9971 9.21619 18.9637 9.33448 18.8967C9.45277 18.8298 9.55009 18.7324 9.74474 18.5378L16.9388 11.3437L16.9388 11.3437C17.6055 10.677 17.9388 10.3437 17.9388 9.9295C17.9388 9.51529 17.6055 9.18196 16.9388 8.51529L16.7672 8.34372C16.1006 7.67705 15.7672 7.34372 15.353 7.34372C14.9388 7.34372 14.6055 7.67705 13.9388 8.34372Z"/>
</mask>
<path d="M6.74474 15.5378L8.15895 16.952L8.15896 16.952L6.74474 15.5378ZM13.9388 8.34372L12.5246 6.9295L12.5246 6.9295L13.9388 8.34372ZM16.7672 8.34372L15.353 9.75793L15.353 9.75793L16.7672 8.34372ZM16.9388 8.51529L18.353 7.10108L18.353 7.10107L16.9388 8.51529ZM16.9388 11.3437L18.353 12.7579L16.9388 11.3437ZM9.74474 18.5378L8.33053 17.1236L8.33053 17.1236L9.74474 18.5378ZM6.21867 16.4669L8.15896 16.952L8.15896 16.952L6.21867 16.4669ZM5.55514 19.1211L3.61486 18.636H3.61486L5.55514 19.1211ZM6.16148 19.7274L5.67641 17.7871L5.58927 17.8089L5.50444 17.8384L6.16148 19.7274ZM8.8156 19.0639L8.33053 17.1236L8.33053 17.1236L8.8156 19.0639ZM5.51984 19.7627L6.93406 18.3485L6.93405 18.3485L5.51984 19.7627ZM6.16147 19.7274L6.64653 21.6677L6.73367 21.6459L6.81851 21.6164L6.16147 19.7274ZM9.33448 18.8967L8.34908 17.1563L8.34907 17.1563L9.33448 18.8967ZM16.9388 11.3437L18.353 12.7579L18.353 12.7579L16.9388 11.3437ZM6.38579 15.9481L4.64539 14.9627L4.64539 14.9627L6.38579 15.9481ZM8.15896 16.952L15.353 9.75793L12.5246 6.9295L5.33053 14.1236L8.15896 16.952ZM15.353 9.75793L15.5246 9.92951L18.353 7.10107L18.1815 6.9295L15.353 9.75793ZM15.5246 9.9295L8.33053 17.1236L11.159 19.952L18.353 12.7579L15.5246 9.9295ZM4.27839 15.9819L3.61486 18.636L7.49543 19.6061L8.15896 16.952L4.27839 15.9819ZM6.64655 21.6677L9.30067 21.0041L8.33053 17.1236L5.67641 17.7871L6.64655 21.6677ZM3.61486 18.636C3.58603 18.7513 3.50358 19.0591 3.47561 19.345C3.44523 19.6556 3.41812 20.4894 4.10563 21.1769L6.93405 18.3485C7.19974 18.6142 7.35217 18.93 7.41947 19.2223C7.47815 19.4773 7.46268 19.6724 7.45661 19.7344C7.45001 19.8019 7.44094 19.8336 7.45003 19.7926C7.4584 19.7548 7.47091 19.7042 7.49543 19.6061L3.61486 18.636ZM5.50444 17.8384L5.50443 17.8384L6.81851 21.6164L6.81852 21.6164L5.50444 17.8384ZM5.67641 17.7871C5.57833 17.8116 5.5277 17.8241 5.48996 17.8325C5.44898 17.8416 5.48065 17.8325 5.54809 17.8259C5.61014 17.8199 5.80526 17.8044 6.0602 17.8631C6.35258 17.9304 6.66838 18.0828 6.93406 18.3485L4.10563 21.1769C4.79313 21.8644 5.6269 21.8373 5.93752 21.8069C6.22341 21.779 6.53125 21.6965 6.64653 21.6677L5.67641 17.7871ZM8.33053 17.1236C8.30582 17.1483 8.28473 17.1694 8.26517 17.1888C8.24574 17.2082 8.22974 17.224 8.21596 17.2375C8.20219 17.251 8.19214 17.2607 8.18475 17.2677C8.18114 17.2711 8.17848 17.2736 8.17663 17.2753C8.17479 17.277 8.17393 17.2778 8.17394 17.2777C8.17396 17.2777 8.17501 17.2768 8.17697 17.2751C8.17895 17.2734 8.18196 17.2708 8.18593 17.2675C8.19388 17.2609 8.20595 17.2511 8.22169 17.2393C8.23758 17.2274 8.25664 17.2139 8.27866 17.1994C8.30079 17.1848 8.32434 17.1703 8.34908 17.1563L10.3199 20.6371C10.729 20.4055 11.0394 20.0716 11.159 19.952L8.33053 17.1236ZM9.30067 21.0041C9.46472 20.9631 9.91074 20.8688 10.3199 20.6371L8.34907 17.1563C8.37382 17.1423 8.39833 17.1296 8.42219 17.1181C8.44595 17.1067 8.4674 17.0973 8.48579 17.0898C8.50401 17.0824 8.51856 17.077 8.52832 17.0736C8.5332 17.0719 8.53696 17.0707 8.53945 17.0699C8.54192 17.069 8.54326 17.0686 8.54329 17.0686C8.54331 17.0686 8.54221 17.069 8.53979 17.0697C8.53738 17.0704 8.53387 17.0714 8.52909 17.0727C8.51928 17.0754 8.50581 17.0791 8.48717 17.0839C8.4685 17.0888 8.4467 17.0944 8.42012 17.1011C8.39337 17.1079 8.36443 17.1151 8.33053 17.1236L9.30067 21.0041ZM15.5246 9.9295C15.6965 10.1014 15.8228 10.2279 15.9269 10.3373C16.0316 10.4475 16.0793 10.5047 16.0988 10.5302C16.1175 10.5547 16.0757 10.5059 16.0304 10.3973C15.9785 10.2728 15.9388 10.1105 15.9388 9.9295H19.9388C19.9388 9.10928 19.5813 8.50025 19.2789 8.1039C19.0117 7.75371 18.6464 7.39443 18.353 7.10108L15.5246 9.9295ZM18.353 12.7579L18.353 12.7579L15.5246 9.9295L15.5246 9.9295L18.353 12.7579ZM18.353 12.7579C18.6464 12.4646 19.0117 12.1053 19.2789 11.7551C19.5813 11.3588 19.9388 10.7497 19.9388 9.9295H15.9388C15.9388 9.74848 15.9785 9.58618 16.0304 9.46169C16.0757 9.35313 16.1175 9.30426 16.0988 9.32878C16.0793 9.35432 16.0316 9.4115 15.9269 9.52166C15.8228 9.63108 15.6965 9.75758 15.5246 9.9295L18.353 12.7579ZM15.353 9.75793C15.525 9.58601 15.6515 9.45969 15.7609 9.35566C15.871 9.25093 15.9282 9.20325 15.9538 9.18376C15.9783 9.16506 15.9294 9.20687 15.8208 9.25214C15.6963 9.30406 15.534 9.34372 15.353 9.34372V5.34372C14.5328 5.34372 13.9238 5.70127 13.5274 6.00367C13.1772 6.27086 12.818 6.63615 12.5246 6.9295L15.353 9.75793ZM18.1815 6.9295C17.8881 6.63615 17.5288 6.27086 17.1786 6.00367C16.7823 5.70127 16.1732 5.34372 15.353 5.34372V9.34372C15.172 9.34372 15.0097 9.30406 14.8852 9.25214C14.7766 9.20687 14.7278 9.16506 14.7523 9.18376C14.7778 9.20325 14.835 9.25093 14.9452 9.35566C15.0546 9.45969 15.1811 9.58601 15.353 9.75793L18.1815 6.9295ZM5.33053 14.1236C5.21096 14.2431 4.87704 14.5535 4.64539 14.9627L8.12619 16.9335C8.11218 16.9582 8.09773 16.9817 8.08317 17.0039C8.06868 17.0259 8.0551 17.045 8.04319 17.0608C8.03139 17.0766 8.02166 17.0886 8.01504 17.0966C8.01174 17.1006 8.00916 17.1036 8.00745 17.1056C8.00574 17.1075 8.0048 17.1086 8.00479 17.1086C8.00477 17.1086 8.00554 17.1077 8.00725 17.1059C8.00896 17.1041 8.01145 17.1014 8.01486 17.0978C8.02187 17.0904 8.03155 17.0803 8.04503 17.0666C8.05852 17.0528 8.07435 17.0368 8.09369 17.0174C8.11316 16.9978 8.13425 16.9767 8.15895 16.952L5.33053 14.1236ZM8.15896 16.952C8.16743 16.9181 8.17467 16.8892 8.18142 16.8624C8.18813 16.8358 8.19371 16.814 8.19858 16.7954C8.20345 16.7767 8.20709 16.7633 8.20983 16.7534C8.21116 16.7487 8.21216 16.7452 8.21287 16.7427C8.21357 16.7403 8.21391 16.7392 8.21391 16.7392C8.2139 16.7393 8.21349 16.7406 8.21268 16.7431C8.21187 16.7456 8.21061 16.7493 8.2089 16.7542C8.20549 16.764 8.20015 16.7785 8.19273 16.7967C8.18523 16.8151 8.17587 16.8366 8.16444 16.8603C8.15296 16.8842 8.1402 16.9087 8.12619 16.9335L4.64539 14.9627C4.41374 15.3718 4.3194 15.8178 4.27839 15.9819L8.15896 16.952Z" fill="#33363F" mask="url(#path-1-outside-1_15_298)"/>
<path d="M12.853 8.4295L15.853 6.4295L18.853 9.4295L16.853 12.4295L12.853 8.4295Z" fill="#33363F"/>
</svg>
