<svg width="226" height="43" viewBox="0 0 226 43" fill="none" xmlns="http://www.w3.org/2000/svg">
<g clip-path="url(#clip0_3_84)">
<path d="M4.3562 19.4081H14.9424C16.8913 19.4081 18.4711 20.9879 18.4711 22.9368V26.4655C18.4711 29.3888 16.1013 31.7586 13.178 31.7586H7.88494C5.93607 31.7586 4.3562 30.1788 4.3562 28.2299V19.4081Z" stroke="#222222" stroke-width="3.52874" stroke-linecap="round" stroke-linejoin="round"/>
<path d="M25.5286 22.9368C25.5286 20.9879 27.1085 19.4081 29.0574 19.4081H39.6436V28.2299C39.6436 30.1788 38.0637 31.7586 36.1148 31.7586H30.8217C27.8984 31.7586 25.5286 29.3888 25.5286 26.4655V22.9368Z" stroke="#222222" stroke-width="3.52874" stroke-linecap="round" stroke-linejoin="round"/>
<path d="M4.3562 19.4081L7.88494 12.3506H11.4137M39.6436 19.4081L36.1148 12.3506H32.5861" stroke="#222222" stroke-width="3.52874" stroke-linecap="round" stroke-linejoin="round"/>
<path d="M18.4712 21.1724H25.5287" stroke="#222222" stroke-width="3.52874" stroke-linecap="round" stroke-linejoin="round"/>
<path d="M54.9014 12.3876H58.3102L66.0417 24.2441V12.3876H69.4504V30.1724H66.0417L58.3102 18.3159V30.1724H54.9014V12.3876ZM72.8966 12.3876H84.5062V15.5246H76.256V19.3286H83.0241V22.4657H76.256V27.0354H84.5062V30.1724H72.8966V12.3876ZM87.4664 12.3876H94.9756C95.5437 12.3876 96.0377 12.4205 96.4577 12.4864C97.9974 12.7252 99.146 13.3592 99.9035 14.3884C100.669 15.4094 101.052 16.7021 101.052 18.2665C101.052 19.5098 100.805 20.5925 100.311 21.5147C99.817 22.4368 99.076 23.1244 98.0879 23.5772L101.299 30.1724H97.4951L94.568 24.1453H90.8258V30.1724H87.4664V12.3876ZM94.8274 21.0083C95.2967 21.0083 95.6755 20.9671 95.9636 20.8848C96.5812 20.7201 97.0176 20.3908 97.2728 19.8967C97.5363 19.3945 97.668 18.8511 97.668 18.2665C97.668 17.6819 97.5363 17.1426 97.2728 16.6485C97.0176 16.1463 96.5812 15.8128 95.9636 15.6481C95.6755 15.5658 95.2967 15.5246 94.8274 15.5246H90.8258V21.0083H94.8274ZM104.014 12.3876H109.77C110.642 12.3876 111.351 12.4205 111.894 12.4864C113.285 12.6511 114.483 13.141 115.488 13.9561C116.501 14.7713 117.271 15.8169 117.798 17.0932C118.324 18.3612 118.588 19.7568 118.588 21.28C118.588 22.8032 118.324 24.203 117.798 25.4792C117.271 26.7472 116.501 27.7888 115.488 28.6039C114.483 29.419 113.285 29.9089 111.894 30.0736C111.351 30.1395 110.642 30.1724 109.77 30.1724H104.014V12.3876ZM109.77 27.0107C110.642 27.0107 111.285 26.9695 111.696 26.8872C112.437 26.739 113.055 26.389 113.549 25.8374C114.051 25.2775 114.422 24.6023 114.66 23.8119C114.907 23.0132 115.031 22.1693 115.031 21.28C115.031 20.3661 114.903 19.5098 114.648 18.7111C114.401 17.9124 114.026 17.2414 113.524 16.6979C113.03 16.1545 112.421 15.8128 111.696 15.6728C111.285 15.5905 110.642 15.5493 109.77 15.5493H107.423V27.0107H109.77ZM121.551 12.3876H131.592V13.8079H122.971V20.5637H130.11V21.9963H122.971V30.1724H121.551V12.3876ZM138.628 12.3876H140.394L146.693 30.1724H145.186L143.593 25.7015H135.417L133.836 30.1724H132.329L138.628 12.3876ZM143.123 24.3553L139.492 14.1414L135.886 24.3553H143.123ZM155.525 30.5429C153.788 30.5429 152.314 30.156 151.103 29.382C149.893 28.5998 148.979 27.5129 148.362 26.1214C147.744 24.7299 147.435 23.1161 147.435 21.28C147.435 19.4439 147.744 17.8301 148.362 16.4386C148.979 15.0471 149.893 13.9644 151.103 13.1904C152.314 12.4082 153.788 12.0171 155.525 12.0171C157.542 12.0171 159.201 12.5399 160.502 13.5856C161.811 14.6313 162.705 16.0763 163.182 17.9207L161.713 18.2788C161.317 16.7473 160.593 15.5535 159.539 14.6972C158.493 13.8408 157.155 13.4127 155.525 13.4127C154.084 13.4127 152.874 13.7503 151.894 14.4254C150.914 15.0924 150.177 16.031 149.683 17.2414C149.197 18.4435 148.954 19.8391 148.954 21.4282C148.954 22.9679 149.205 24.3183 149.708 25.4792C150.21 26.6319 150.951 27.5335 151.931 28.184C152.919 28.8262 154.117 29.1473 155.525 29.1473C157.155 29.1473 158.493 28.7192 159.539 27.8629C160.593 27.0066 161.317 25.8127 161.713 24.2812L163.182 24.6394C162.705 26.4837 161.811 27.9287 160.502 28.9744C159.201 30.0201 157.542 30.5429 155.525 30.5429ZM170.779 13.7709H164.406V12.3876H178.572V13.7709H172.199V30.1724H170.779V13.7709ZM187.656 30.5429C185.918 30.5429 184.445 30.156 183.234 29.382C182.024 28.5998 181.11 27.5129 180.492 26.1214C179.875 24.7299 179.566 23.1161 179.566 21.28C179.566 19.4439 179.875 17.8301 180.492 16.4386C181.11 15.0471 182.024 13.9644 183.234 13.1904C184.445 12.4082 185.918 12.0171 187.656 12.0171C189.385 12.0171 190.854 12.4082 192.065 13.1904C193.275 13.9644 194.189 15.0471 194.807 16.4386C195.424 17.8301 195.733 19.4439 195.733 21.28C195.733 23.1161 195.424 24.7299 194.807 26.1214C194.189 27.5129 193.275 28.5998 192.065 29.382C190.854 30.156 189.385 30.5429 187.656 30.5429ZM181.085 21.3912C181.085 22.9309 181.332 24.2853 181.826 25.4545C182.328 26.6155 183.069 27.5212 184.049 28.1716C185.037 28.8221 186.239 29.1473 187.656 29.1473C189.08 29.1473 190.282 28.8221 191.262 28.1716C192.242 27.5129 192.979 26.5908 193.473 25.4051C193.967 24.2194 194.214 22.8444 194.214 21.28C194.214 19.7156 193.967 18.3447 193.473 17.1673C192.979 15.9816 192.242 15.0594 191.262 14.4007C190.282 13.742 189.08 13.4127 187.656 13.4127C186.223 13.4127 185.013 13.7462 184.025 14.4131C183.045 15.08 182.308 16.0145 181.814 17.2167C181.328 18.4106 181.085 19.8021 181.085 21.3912ZM198.212 12.3876H204.918C205.313 12.3876 205.712 12.4205 206.116 12.4864C206.989 12.6181 207.746 12.9351 208.388 13.4374C209.031 13.9314 209.521 14.5572 209.858 15.3147C210.204 16.0722 210.377 16.9038 210.377 17.8095C210.377 18.9787 210.101 20.012 209.549 20.9095C209.006 21.7987 208.24 22.4368 207.252 22.8238L210.834 30.1724H209.167L205.807 23.2438H199.632V30.1724H198.212V12.3876ZM204.893 21.8481C205.272 21.8481 205.638 21.8152 205.992 21.7493C206.61 21.6258 207.137 21.3706 207.573 20.9836C208.01 20.5966 208.335 20.1273 208.549 19.5756C208.771 19.024 208.882 18.4353 208.882 17.8095C208.882 17.1837 208.771 16.595 208.549 16.0434C208.335 15.4917 208.01 15.0265 207.573 14.6477C207.137 14.2608 206.61 14.0055 205.992 13.882C205.655 13.8079 205.288 13.7709 204.893 13.7709H199.632V21.8481H204.893ZM217.487 22.6633L211.559 12.3876H213.201L218.203 21.033L223.193 12.3876H224.836L218.92 22.6633V30.1724H217.487V22.6633Z" fill="black"/>
</g>
<defs>
<clipPath id="clip0_3_84">
<rect width="224.345" height="42.3448" fill="white" transform="translate(0.827515)"/>
</clipPath>
</defs>
</svg>
