<svg width="25" height="25" viewBox="0 0 25 25" fill="none" xmlns="http://www.w3.org/2000/svg">
<path fill-rule="evenodd" clip-rule="evenodd" d="M5.42615 17.0822C5.76452 17.5991 6.16329 18.0776 6.61618 18.5069C7.73837 19.5705 9.14474 20.2861 10.6651 20.5672C12.1855 20.8483 13.7548 20.6828 15.1831 20.0907C16.6114 19.4986 17.8375 18.5053 18.7131 17.2309C19.5887 15.9566 20.0762 14.4558 20.1168 12.9102C20.1573 11.3645 19.749 9.84027 18.9414 8.5218C18.1338 7.20333 16.9614 6.14715 15.5661 5.48103C14.6218 5.03022 13.6027 4.77114 12.5674 4.71307L13.1226 6.78497C13.6677 6.87741 14.2003 7.04522 14.7044 7.2859C15.7509 7.78549 16.6302 8.57763 17.2359 9.56648C17.8416 10.5553 18.1478 11.6985 18.1174 12.8577C18.0871 14.017 17.7214 15.1426 17.0647 16.0983C16.408 17.0541 15.4884 17.7991 14.4172 18.2431C13.346 18.6872 12.169 18.8114 11.0287 18.6005C9.88843 18.3897 8.83365 17.853 7.99201 17.0553C7.81627 16.8887 7.6514 16.7123 7.49804 16.527L5.42615 17.0822Z" fill="#241C15"/>
<path d="M6.03177 4.7666C6.80862 4.1705 7.66735 3.69285 8.5798 3.34752C8.99916 3.18881 9.20884 3.10945 9.40633 3.21067C9.60381 3.31188 9.66588 3.54352 9.79001 4.0068L11.8606 11.7342C11.9826 12.1896 12.0436 12.4172 11.94 12.5966C11.8365 12.7759 11.6088 12.8369 11.1535 12.959L3.42605 15.0295C2.96277 15.1536 2.73113 15.2157 2.54473 15.0953C2.35834 14.9749 2.32223 14.7536 2.24999 14.3111C2.09283 13.3482 2.07713 12.3657 2.20494 11.3949C2.37635 10.0929 2.80252 8.83742 3.45913 7.70013C4.11574 6.56285 4.98992 5.56604 6.03177 4.7666Z" stroke="#241C15" stroke-width="2"/>
</svg>
